<?xml version="1.0" encoding="utf-8"?>
<!-- Generator: Adobe Illustrator 24.2.3, SVG Export Plug-In . SVG Version: 6.00 Build 0)  -->
<svg version="1.1" id="Layer_1" xmlns="http://www.w3.org/2000/svg" xmlns:xlink="http://www.w3.org/1999/xlink" x="0px" y="0px"
	 viewBox="0 0 1217.6 668.7" style="enable-background:new 0 0 1217.6 668.7;" xml:space="preserve">
<style type="text/css">
	.st0{fill:#4EC2C3;}
	.st1{fill:#FFFFFF;}
</style>
<path d="M582.9,330.9c-1.6-13.8-3.1-26.5-4.8-41.3c-11.1,2.9-21.6,5.2-31.7,8.7c-2.4,0.8-4.8,5.5-4.9,8.4
	c-0.9,30.5-18.2,44.8-46.7,49.1c-6.7,1-13.2,3.9-22.1,6.7c3.4-13.1,6-24,9.1-34.8c20.1-69.8,40.2-139.7,60.7-209.4
	c1.1-3.8,4.5-8.9,7.9-9.9c21.5-6.1,43.2-11.2,66.3-17c0.7,6.8,1.4,12.5,1.9,18.3c6.1,65.4,12.2,130.7,17.9,196.1
	c0.3,3.3-1.8,9.1-4.1,9.9C616.6,321.2,600.4,325.7,582.9,330.9z M550.7,252.8c8.9-2.2,16.1-3.9,24.1-5.8
	c-1.9-18.2-3.7-35.3-5.5-52.4c-0.7,0-1.4-0.1-2-0.1C561.9,213.1,556.6,231.8,550.7,252.8z"/>
<path d="M123.8,559.2c31.1-14.8,61.9-30.3,93.4-44.3c191.4-85,389-151.7,593.7-196.4c65.6-14.3,132.4-22.7,198.8-33.7
	c10.4-1.7,12.8,1.2,10.8,11.6c-3.3,17.9-12.1,26.4-30.4,28.4C772.6,348.4,563.4,407.1,356.8,476c-75.3,25.1-149.1,54.6-223.6,82.1
	c-2.8,1-5.6,2.2-8.3,3.3C124.5,560.7,124.2,559.9,123.8,559.2z"/>
<path d="M661.1,306c-1.9-20.5-3.8-38.9-4.9-57.2c-0.2-2.5,3.4-6.6,6.2-7.8c10.1-4.3,20.7-7.3,30.9-11.5
	c16.3-6.8,21.5-16.8,16.5-33.8c-3.2-10.9-8.4-21.2-12.6-31.7c-2.9-7.3-6.3-14.5-8.4-22c-10.2-35.3,0.5-59.5,33.2-76.2
	c18.9-9.7,56.4-19.8,74.6-19.7c-1.9,18-3.7,35.8-5.6,54.3c-4.9,1.6-9.6,3.1-14.3,4.8c-25.5,9-31.8,25.1-20.9,49.9
	c7.7,17.5,15,35.5,20,53.9c5.3,19.7-1.3,37.4-16.5,51.2C731.7,285,696.9,294.2,661.1,306z"/>
<path d="M840.5,257c7.1-57.7,13.8-113,20.8-170c-14.6,2.7-27.8,5.1-43,7.9c2.1-18.3,3.9-35.3,6.2-52.3c0.3-1.8,3.3-4.3,5.4-4.8
	c45-9.1,90.1-17.9,137.5-27.3c-2.3,18.9-4.3,36.2-6.9,53.5c-0.3,1.9-4.5,3.8-7.1,4.6c-6.1,1.6-12.3,3.4-18.5,3.6
	c-13.3,0.3-17.5,6.6-18.5,19.6c-3.6,46.2-8.8,92.3-12.8,138.6c-0.7,7.6-3.6,10.9-10.7,12.6C876,247,859.5,251.8,840.5,257z"/>
<path d="M319.4,420c3.4-37.7,6.6-72.8,9.9-107.9c1.8-19.2,4.5-38.3,6-57.5c0.6-8.2,3.7-12.6,11.6-15.3c18.4-6.3,36.4-13.5,56.1-20.9
	c-0.8,9.7-1.5,16.9-2.3,26.4c19.3-5.2,37.2-10,57.2-15.4c-5,18.6-9.2,35.6-14.4,52.3c-0.8,2.7-5.8,4.6-9.3,5.8
	c-15.9,5.3-31.9,10.2-47.6,17c2.4,0.4,4.9,0.7,7.9,1.2c-2.4,29.6-4.7,58.9-7.5,88.2c-0.2,2.3-3.2,5.5-5.6,6.3
	C361.8,406.6,342,412.8,319.4,420z"/>
<path class="st0" d="M307.2,646.5c3-37.8,5.7-72.5,8.5-108.9c-105.3,30.7-202.6,76.5-301.6,118.5c15.6-9,31.1-18.2,46.8-27
	c84.6-47.2,170.3-92,261.7-124.7c10.9-3.9,23-6,34.5-6.2c28.6-0.4,45.2,18.1,43.5,46.7c-2.3,38-19.5,66.7-53.9,84
	C334.8,635.1,322.1,640,307.2,646.5z M342.1,598.5c1.2,0.3,2.4,0.7,3.6,1c16.9-13.6,24.8-31.4,22.4-53.3c-0.5-4.5-3.7-9.7-7.2-12.8
	c-5.8-5.1-14.8-2.2-15.3,4.4C344.1,558,343.2,578.3,342.1,598.5z"/>
<path class="st0" d="M641.8,339.2c40.4-14.2,80.5-29,121.2-42.3c140.1-45.8,283.1-79.6,429.3-98.8c4.3-0.6,8.8,0.9,13.3,1.4
	c-0.8,4.8-0.7,10.1-2.7,14.3c-6.7,14.2-17.4,21.4-34.1,22.5c-107.4,7.1-213.3,25.3-317.8,50.7c-68.3,16.6-136,36-203.9,54.2
	c-1.4,0.4-2.9,0.7-4.3,1C642.5,341.2,642.1,340.2,641.8,339.2z"/>
<path d="M503.9,125.9c-5.7,21.4-10.9,41.4-16.6,61.3c-0.7,2.3-4.1,4.8-6.7,5.4c-52.6,13-105.2,25.8-159.4,39
	c1.5-16.7,2.7-32.7,4.5-48.6c0.3-2.2,3.6-5,6.1-5.8c54.1-16.7,108.2-33.2,162.3-49.7C496.7,126.8,499.4,126.6,503.9,125.9z"/>
<path class="st0" d="M838.2,459.7c-6.5,31.9-6.8,32.2-32.4,34.7c1-17.7,2-35.1,3.1-52.6c0.4-7.4,1.2-14.9,1.4-22.3
	c0.1-4,2.6-8.7-5.3-10.2c-5.1-1-1.9-24.9,3.9-26.3c19-4.6,38-10,57.3-11.9c16.8-1.7,26.9,10.1,22.1,26.3
	c-4.8,16-14.6,30.4-22.4,45.8c6.3,7.4,14.8,17.5,25.2,29.8c-9.3,2.4-14.6,3.3-19.6,5.1c-7.8,2.7-13.6,2.9-18-6.3
	C851.2,467,844.6,464.5,838.2,459.7z M838.3,428.6c1.3,0.7,2.5,1.4,3.8,2.1c5.7-6,12.1-11.5,16.8-18.2c1.9-2.7,1.6-9.8-0.5-11.6
	c-2.8-2.4-8.8-3.1-12.6-1.9c-2.8,0.8-5.7,5.6-6.3,9C838.3,414.6,838.6,421.7,838.3,428.6z"/>
<path class="st0" d="M480.1,462.3c-0.8,9.4-1,17.2-2.5,24.8c-0.5,2.5-4,5.3-6.7,6.4c-5.4,2.3-11.2,3.5-16.8,5.4
	c-15.5,5.2-15.8,5.9-12.5,23.9c10-2.9,19.9-5.8,30.7-8.9c0,8.5,0.6,15.5-0.3,22.4c-0.3,2.6-3.5,5.6-6.1,6.8
	c-4.9,2.3-10.3,3.8-15.6,5.1c-12,2.9-13.6,10.8-10.9,22.1c11.7-3.8,22.7-7.4,35.5-11.5c0,9.7,0.4,18.1-0.3,26.4
	c-0.2,2.1-3.7,4.6-6.2,5.6c-18.8,6.9-37.7,13.4-57.6,20.4c-0.2-3-0.7-5.9-0.6-8.7c0.9-25.2,2.1-50.3,2.6-75.5
	c0.1-5.4,4.8-13.4-6.7-15.1c-4.1-0.6-0.6-25.7,4.3-27.3C432.9,477.1,455.7,470,480.1,462.3z"/>
<path class="st0" d="M724.7,431.3c-3.1-0.2-5.6-0.4-8-0.6c-0.8-23.9-0.8-24,21-30.1c17.4-4.8,34.8-9.2,54.2-14.3
	c-0.6,8.7-0.6,15.7-2,22.4c-0.5,2.6-3.9,5.6-6.7,6.6c-6.2,2.3-12.8,4.2-19.3,5.1c-11.6,1.5-14.1,7.8-11.3,18.8
	c10.3-2.5,20.5-4.9,31.2-7.5c0,7.3,0.9,13.7-0.4,19.7c-0.8,3.5-4.6,7.2-8,9.1c-4.4,2.3-9.7,3.2-14.7,4.1c-11.3,2-13.7,8.8-10.7,19.7
	c11.7-3.1,23.3-6.2,36.5-9.7c-0.6,8.4-0.8,15.4-1.9,22.2c-0.3,2.1-2.7,5.1-4.6,5.6c-19.7,5.1-39.5,9.7-61.1,14.9
	C721,488.5,722.8,460.5,724.7,431.3z"/>
<path class="st0" d="M641.6,538.8c-4.8-38.5-9.5-75.5-14.2-113.3c9.1-2.1,17-4,26.3-6.1c2.3,19.7,4.4,38.2,6.5,56.7
	c0.8,0.1,1.5,0.3,2.3,0.4c3.6-13.4,7.1-26.7,10.7-40.1c6.3-23.6,9.8-26.3,36.8-26.9c-4.8,16.1-9.4,31.7-14,47.4
	c-5.9,20-12.5,39.8-17.6,60c-2.5,9.7-7.4,14.8-16.9,16.6C655.2,534.5,649.3,536.7,641.6,538.8z"/>
<path class="st0" d="M602.4,521.7c4.1,0,7.1,0,9.6,0c6.1,7.6,1.4,25.3-6.8,27.9c-15.3,4.8-30.6,9.4-47.3,14.5
	c0.6-9.6,1-17.4,1.6-25.1c0.1-1.5,0.8-3.9,1.6-4.1c14.7-3.6,9.8-15.7,10.7-25c1.4-14.4,2-28.9,3-44c-4.3,0-7.7,0-11.2,0
	c-0.3-1.6-0.8-2.7-0.8-3.8c1.1-20.6,1.1-20.7,21.1-26.3c10.9-3.1,21.8-5.8,35.5-9.4c-4.1,12,4.9,25.7-12.3,30.8
	c-0.9,0.3-1.7,2.6-1.8,4C604.3,481.1,603.3,501.1,602.4,521.7z"/>
<path class="st0" d="M921.4,358.2c1.9,9.5,3.5,17.9,5.2,26.3c0.8,0.3,1.6,0.6,2.4,0.9c4.5-9.5,7-21.3,14.1-28
	c7.2-6.7,19.1-8.3,29-12.2c0.8,1,1.7,2,2.5,3.1c-3.1,6.5-6.2,12.9-9.1,19.4c-12.8,27.8-27,55.2-27.6,87c0,2.6-3,6.6-5.4,7.4
	c-8.1,2.5-16.6,3.8-24.7,5.5c-0.8-1.5-1.6-2.3-1.5-2.9c7.1-28.1-1.9-54-10.3-80.2c-6.7-21-5.7-21.4,16-25.2
	C914.6,358.8,917.3,358.6,921.4,358.2z"/>
<path class="st0" d="M525.6,452.3c-2.2,31.8-4.4,61.9-6.6,93.7c10.2-3.2,18.9-5.9,29.1-9.1c-1,10-1.6,18.1-2.9,26.1
	c-0.4,2.2-2.8,5-4.9,5.7c-15.8,5.7-31.8,10.9-48.5,16.6c0-15.5-0.4-29.1,0.1-42.6c0.9-23.2,3-46.4,3.1-69.6
	c0-11.3,3.6-16.6,14.7-17.6C514.4,455.3,518.9,453.8,525.6,452.3z"/>
<path class="st1" d="M550.7,252.8c5.9-21,11.2-39.7,16.5-58.4c0.7,0,1.4,0.1,2,0.1c1.8,17.1,3.6,34.2,5.5,52.4
	C566.8,248.9,559.6,250.6,550.7,252.8z"/>
<path class="st1" d="M342.1,598.5c1.1-20.2,2-40.5,3.5-60.7c0.5-6.6,9.4-9.5,15.3-4.4c3.5,3.1,6.7,8.2,7.2,12.8
	c2.5,21.9-5.4,39.7-22.4,53.3C344.5,599.2,343.3,598.8,342.1,598.5z"/>
<path class="st1" d="M838.3,428.6c0.3-6.9,0-13.9,1.2-20.7c0.6-3.4,3.5-8.1,6.3-9c3.9-1.1,9.8-0.5,12.6,1.9
	c2.1,1.8,2.4,8.9,0.5,11.6c-4.7,6.7-11.1,12.2-16.8,18.2C840.8,429.9,839.6,429.2,838.3,428.6z"/>
</svg>
